<svg width="25" height="22" viewBox="0 0 25 22" fill="none" xmlns="http://www.w3.org/2000/svg">
<path d="M21.0903 9.9139L20.2192 13.6295C19.4725 16.8384 17.997 18.1361 15.2236 17.8695C14.7792 17.8339 14.2992 17.7539 13.7836 17.6295L12.2903 17.2739C8.58363 16.3939 7.43697 14.5628 8.30808 10.8472L9.17919 7.12279C9.35697 6.36724 9.5703 5.70946 9.83697 5.16724C10.877 3.01613 12.6459 2.43835 15.6147 3.14057L17.0992 3.48724C20.8236 4.35835 21.9614 6.19835 21.0903 9.9139Z" fill="#7270E4" stroke="white" stroke-width="1.33333" stroke-linecap="round" stroke-linejoin="round"/>
<path d="M15.2229 17.8692C14.6718 18.2425 13.9785 18.5537 13.134 18.8292L11.7296 19.2914C8.20069 20.4292 6.34291 19.4781 5.19624 15.9492L4.05846 12.4381C2.92069 8.90921 3.86291 7.04255 7.3918 5.90477L8.79624 5.44255C9.16069 5.32699 9.50735 5.22921 9.83624 5.16699C9.56957 5.70921 9.35624 6.36699 9.17846 7.12255L8.30735 10.847C7.43624 14.5625 8.58291 16.3937 12.2896 17.2737L13.7829 17.6292C14.2985 17.7537 14.7785 17.8337 15.2229 17.8692Z" fill="#7270E4"/>
</svg>
