<svg width="33" height="32" viewBox="0 0 33 32" fill="none" xmlns="http://www.w3.org/2000/svg">
<path d="M11.8902 30.15V23.25L6.74023 27.05C8.19023 28.4 9.94023 29.45 11.8902 30.15ZM21.8902 30.15C23.8402 29.45 25.5902 28.4 27.0402 27.05L21.8902 23.2V30.15ZM2.74023 21C2.89023 21.5 3.09023 21.95 3.34023 22.45L5.29023 21H2.74023ZM28.4902 21L30.4402 22.45C30.6402 22 30.8402 21.5 31.0402 21H28.4902Z" fill="#2A5F9E"/>
<path d="M12.6414 19H2.19141C2.34141 19.7 2.54141 20.35 2.74141 21H5.29141L3.34141 22.45C3.74141 23.3 4.19141 24.05 4.74141 24.8L9.89141 21H11.8914V22L6.04141 26.3L6.74141 27L11.8914 23.25V30.15C12.5414 30.4 13.1914 30.55 13.8914 30.7V19H12.6414ZM31.5914 19H19.8914V30.7C20.5914 30.55 21.2414 30.35 21.8914 30.15V23.25L27.0414 27C27.7414 26.35 28.3414 25.65 28.9414 24.9L23.5914 21H26.9914L30.0414 23.25C30.1914 23 30.3414 22.7 30.4414 22.45L28.4914 21H31.0414C31.2414 20.35 31.4414 19.7 31.5914 19Z" fill="white"/>
<path d="M4.74023 24.8C5.14023 25.35 5.54023 25.85 5.99023 26.35L11.8902 22.05V21.05H9.89023L4.74023 24.8ZM23.6402 21L28.9902 24.9C29.1902 24.65 29.3402 24.4 29.5402 24.15C29.5902 24.1 29.5902 24.05 29.6402 24.05C29.7902 23.8 29.9902 23.5 30.1402 23.25L26.9902 21H23.6402Z" fill="#ED4C5C"/>
<path d="M21.8902 1.84961V8.74961L27.0402 4.94961C25.5902 3.59961 23.8402 2.54961 21.8902 1.84961ZM11.8902 1.84961C9.94023 2.54961 8.19023 3.59961 6.74023 4.94961L11.8902 8.79961V1.84961ZM31.0402 10.9996C30.8902 10.4996 30.6902 10.0496 30.4402 9.54961L28.4902 10.9996H31.0402ZM5.29023 10.9996L3.34023 9.54961C3.14023 10.0496 2.94023 10.4996 2.74023 10.9996H5.29023Z" fill="#2A5F9E"/>
<path d="M21.1414 13.0008H31.5414C31.3914 12.3008 31.1914 11.6508 30.9914 11.0008H28.4414L30.3914 9.55078C29.9914 8.70078 29.5414 7.95078 28.9914 7.20078L23.8914 11.0008H21.8914V10.0008L27.7414 5.70078L27.0414 5.00078L21.8914 8.75078V1.85078C21.2414 1.60078 20.5914 1.45078 19.8914 1.30078V13.0008H21.1414ZM2.19141 13.0008H13.8914V1.30078C13.1914 1.45078 12.5414 1.65078 11.8914 1.85078V8.75078L6.74141 5.00078C6.04141 5.65078 5.44141 6.35078 4.84141 7.10078L10.1914 11.0008H6.79141L3.74141 8.75078C3.59141 9.00078 3.44141 9.30078 3.34141 9.55078L5.29141 11.0008H2.74141C2.54141 11.6508 2.34141 12.3008 2.19141 13.0008Z" fill="white"/>
<path d="M29.0414 7.20039C28.6414 6.65039 28.2414 6.15039 27.7914 5.65039L21.8914 9.95039V10.9504H23.8914L29.0414 7.20039ZM10.1414 11.0004L4.84141 7.10039C4.64141 7.35039 4.49141 7.60039 4.29141 7.85039C4.24141 7.90039 4.24141 7.95039 4.19141 7.95039C4.04141 8.20039 3.84141 8.50039 3.69141 8.75039L6.74141 11.0004H10.1414Z" fill="#ED4C5C"/>
<path d="M31.5906 13H19.8906V1.3C18.9406 1.1 17.9406 1 16.8906 1C15.3156 1 14.8406 1.1 13.8906 1.3V13H2.19062C1.99062 13.95 1.89062 14.95 1.89062 16C1.89062 17.575 1.99062 18.05 2.19062 19H13.8906V30.7C14.8406 30.9 15.8406 31 16.8906 31C18.4656 31 18.9406 30.9 19.8906 30.7V19H31.5906C31.7906 18.05 31.8906 17.05 31.8906 16C31.8906 14.425 31.7906 13.95 31.5906 13Z" fill="#ED4C5C"/>
</svg>
