<svg width="33" height="32" viewBox="0 0 33 32" fill="none" xmlns="http://www.w3.org/2000/svg">
<path d="M16.8902 1C10.3402 1 4.79023 5.2 2.74023 11H31.0402C28.9902 5.2 23.4402 1 16.8902 1Z" fill="#ED4C5C"/>
<path d="M16.8902 31C23.4402 31 28.9902 26.85 31.0402 21H2.74023C4.79023 26.85 10.3402 31 16.8902 31Z" fill="#3E4347"/>
<path d="M2.74063 11C2.19063 12.55 1.89062 14.25 1.89062 16C1.89062 17.75 2.19063 19.45 2.74063 21H31.0406C31.5906 19.45 31.8906 17.75 31.8906 16C31.8906 14.25 31.5906 12.55 31.0406 11H2.74063Z" fill="#F9F9F9"/>
<path d="M16.191 12.5492C16.341 12.4492 16.441 12.5492 16.541 12.6492C16.591 12.7492 16.591 13.0492 16.491 13.3992C16.441 13.5992 16.291 13.7992 16.191 13.9492C16.391 13.9492 16.641 13.8992 16.891 13.7992C17.141 13.8992 17.341 13.9492 17.591 13.9492C17.491 13.7492 17.391 13.3492 17.441 13.0492C17.441 12.5992 17.391 12.4492 17.291 12.3492C17.191 12.2492 16.941 12.1992 16.791 12.1992C16.691 12.1992 16.691 12.2492 16.691 12.2492C16.491 12.1992 16.341 12.1992 16.241 12.2492C16.141 12.3492 16.141 12.5992 16.191 12.5492Z" fill="white"/>
<path d="M19.5402 14.0496C19.4402 13.4996 18.8902 13.6496 18.4402 13.8996C18.2402 13.9996 18.0402 14.0996 17.8402 14.0996H17.6902C17.4402 14.0996 17.1402 14.0496 16.8902 13.9496C16.6402 14.0496 16.3402 14.0996 16.0902 14.0996H15.9902C15.7402 14.0996 15.5402 13.9996 15.3402 13.8496C14.9402 13.6496 14.3902 13.4996 14.2402 13.9996C14.3402 13.9496 14.4402 13.8496 14.4902 13.8496L14.2902 18.6496L14.3902 18.5496L14.5902 13.8996C14.6402 13.9496 14.8402 14.1496 14.8902 14.1496L14.7402 18.1996L14.8902 18.0496L15.0402 14.1996C15.0902 14.2496 15.2402 14.3496 15.2902 14.3996L15.1402 17.7496L15.5402 17.3996L15.9402 16.0496C15.5902 15.2996 15.6402 14.6496 15.6402 14.6496H15.7402C15.9902 14.6496 16.5402 14.4996 16.7902 14.3496C16.8402 14.3496 16.8402 14.2996 16.8902 14.2996C16.8902 14.3496 16.9402 14.3496 16.9902 14.3996C17.2402 14.5496 17.7902 14.6996 18.0402 14.6996H18.1402C18.1402 14.6996 18.1902 15.3496 17.8402 16.0996L18.1902 17.3996L18.5902 17.7496L18.4402 14.4496C18.4902 14.3996 18.5902 14.2996 18.6902 14.2496L18.8402 17.9996L18.9902 18.1496L18.8402 14.1496C18.8902 14.0996 19.0902 13.9496 19.1402 13.8996L19.3402 18.4996L19.4402 18.5996L19.2402 13.8496C19.2902 13.8996 19.4402 13.9996 19.5402 14.0496Z" fill="white"/>
<path d="M16.4395 14.8501V16.8001C16.4395 16.8001 16.4395 16.8501 16.4895 16.8501C16.5395 16.9501 16.6395 17.0001 16.6895 17.1001L16.8395 17.2501L16.9895 17.1001L17.2395 16.8501V14.9501C17.0895 14.9001 16.9395 14.8501 16.8395 14.7501C16.7895 14.7001 16.6395 14.7501 16.4395 14.8501Z" fill="white"/>
<path d="M19.0406 18.9492C19.0406 18.6992 18.7906 18.6992 18.5906 18.7492C18.5406 18.7492 18.5406 18.7492 18.4906 18.7992L18.1906 17.6992L19.8406 19.2992L19.6406 14.0992C19.5906 13.2992 18.9406 13.4992 18.4906 13.7992C18.2406 13.9492 18.0406 14.0492 17.7906 14.0492C17.4406 13.4492 17.6406 12.6492 17.3906 12.4492C17.2906 12.3492 16.9406 12.1992 16.6906 12.1992C16.5406 12.1992 16.5906 12.2992 16.5906 12.2992C16.3406 12.2492 16.1406 12.2492 16.0406 12.3492C15.9406 12.3992 16.0406 12.8992 16.0906 12.7992C16.2406 12.6492 16.2906 12.6992 16.3906 12.8492C16.4906 12.9992 16.2906 13.5992 16.0406 14.0492C15.7406 14.0492 15.4906 13.9492 15.2406 13.7992C14.7406 13.4992 14.0906 13.3492 14.0906 14.0992L13.8906 19.2492L15.5406 17.6992L15.2406 18.7492C15.1906 18.7492 15.1906 18.7492 15.1406 18.6992C14.9406 18.6492 14.6906 18.6492 14.6906 18.8992C14.3906 18.8492 14.2906 19.2992 14.5906 19.3992C14.5906 19.5492 14.5906 19.6492 14.7906 19.6492C15.2406 19.7992 16.0406 19.8492 16.8406 19.8492C17.6406 19.8492 18.4406 19.7992 18.8906 19.6492C19.0906 19.5992 19.0906 19.4992 19.0906 19.3992C19.4906 19.2992 19.3406 18.8492 19.0406 18.9492ZM16.4906 16.7992C16.4906 16.7492 16.4906 16.7492 16.4906 16.7992L16.4406 16.7492V14.8492C16.6406 14.7992 16.7906 14.7492 16.8906 14.6492C16.9906 14.7492 17.1406 14.7992 17.2906 14.8492V16.7492C17.1906 16.8492 17.1406 16.9492 17.0406 16.9992L16.8906 17.1492L16.7406 16.9992C16.6406 16.9492 16.5906 16.8492 16.4906 16.7992ZM16.4906 13.4492C16.5906 13.0992 16.5906 12.7992 16.5406 12.6992C16.4406 12.5992 16.3406 12.4992 16.1906 12.5992C16.1406 12.6492 16.1406 12.3992 16.2406 12.3492C16.3406 12.2992 16.4906 12.2992 16.6906 12.3492C16.6906 12.3492 16.6906 12.2492 16.7906 12.2992C16.9406 12.2992 17.2406 12.3992 17.2906 12.4492C17.3406 12.4992 17.4406 12.6992 17.4406 13.1492C17.4406 13.4492 17.4906 13.8492 17.5906 14.0492C17.3906 14.0492 17.1406 13.9992 16.8906 13.8992C16.6406 13.9992 16.4406 14.0492 16.1906 14.0492C16.2906 13.8492 16.4406 13.6492 16.4906 13.4492ZM15.1906 17.8992L15.3406 14.5492C15.2906 14.4992 15.1906 14.3992 15.0906 14.3492L14.8906 18.1492L14.7406 18.2992L14.8906 14.2492C14.8406 14.1992 14.6406 14.0492 14.5906 13.9992L14.3906 18.6492L14.2906 18.7492L14.4906 13.9492C14.4406 13.9492 14.2906 13.9992 14.2406 14.0992C14.3906 13.5992 14.9406 13.7492 15.3406 13.9992C15.5406 14.1492 15.7906 14.1992 15.9906 14.2492H16.0906C16.3406 14.2492 16.5906 14.1992 16.8906 14.0992C17.1906 14.1992 17.4406 14.2492 17.6906 14.2492H17.8406C18.0406 14.1992 18.2406 14.1492 18.4406 14.0492C18.8906 13.7992 19.4406 13.6492 19.5406 14.1992C19.4406 14.1492 19.2906 14.0492 19.2406 14.0492L19.4406 18.7992L19.3406 18.6992L19.1406 13.9992C19.0906 14.0492 18.8906 14.2492 18.8406 14.2492L18.9906 18.2492L18.8406 18.0992L18.6906 14.3492C18.6406 14.3992 18.4906 14.4992 18.4406 14.5492L18.5906 17.8492L18.1906 17.4992L17.8406 16.1992C18.1906 15.4492 18.1406 14.7992 18.1406 14.7992H18.0406C17.7906 14.7992 17.2406 14.6992 16.9906 14.4992C16.9406 14.4992 16.9406 14.4492 16.8906 14.3992C16.8906 14.3992 16.8406 14.4492 16.7906 14.4492C16.5406 14.5992 15.9906 14.7492 15.7406 14.7492H15.6406C15.6406 14.7492 15.5906 15.3992 15.9406 16.1492L15.5406 17.4992L15.1906 17.8992ZM16.8906 18.8992H16.3406L16.6906 17.1992C16.7406 17.2492 16.7906 17.2992 16.8906 17.3492C16.9406 17.2992 17.0406 17.2492 17.0906 17.1992L17.4906 18.8992H16.8906Z" fill="#C09300"/>
</svg>
