<svg width="25" height="24" viewBox="0 0 25 24" fill="none" xmlns="http://www.w3.org/2000/svg">
<g clip-path="url(#clip0_473_25608)">
<path fill-rule="evenodd" clip-rule="evenodd" d="M23.9106 12.2729C23.9106 11.422 23.8343 10.6038 23.6924 9.81836H12.3906V14.4602H18.8488C18.5706 15.9602 17.7252 17.2311 16.4543 18.082V21.0929H20.3324C22.6015 19.0038 23.9106 15.9274 23.9106 12.2729Z" fill="#4285F4"/>
<path fill-rule="evenodd" clip-rule="evenodd" d="M12.3916 23.9993C15.6316 23.9993 18.348 22.9248 20.3334 21.092L16.4552 18.0811C15.3807 18.8011 14.0062 19.2266 12.3916 19.2266C9.26615 19.2266 6.6207 17.1157 5.67706 14.2793H1.66797V17.3884C3.64251 21.3102 7.7007 23.9993 12.3916 23.9993Z" fill="#34A853"/>
<path fill-rule="evenodd" clip-rule="evenodd" d="M5.67608 14.2804C5.43608 13.5604 5.29972 12.7913 5.29972 12.0004C5.29972 11.2095 5.43608 10.4404 5.67608 9.72042V6.61133H1.66699C0.854261 8.23133 0.390625 10.0641 0.390625 12.0004C0.390625 13.9368 0.854261 15.7695 1.66699 17.3895L5.67608 14.2804Z" fill="#FBBC05"/>
<path fill-rule="evenodd" clip-rule="evenodd" d="M12.3916 4.77273C14.1534 4.77273 15.7352 5.37818 16.9789 6.56727L20.4207 3.12545C18.3425 1.18909 15.6262 0 12.3916 0C7.7007 0 3.64251 2.68909 1.66797 6.61091L5.67706 9.72C6.6207 6.88364 9.26615 4.77273 12.3916 4.77273Z" fill="#EA4335"/>
</g>
<defs>
<clipPath id="clip0_473_25608">
<rect x="0.390625" width="24" height="24" rx="6" fill="white"/>
</clipPath>
</defs>
</svg>
