<svg width="25" height="24" viewBox="0 0 25 24" fill="none" xmlns="http://www.w3.org/2000/svg">
<path d="M22.1639 18.7033C21.7976 19.5418 21.3641 20.3136 20.8618 21.0232C20.1771 21.9906 19.6165 22.6602 19.1844 23.032C18.5147 23.6424 17.7971 23.955 17.0287 23.9728C16.4771 23.9728 15.8118 23.8172 15.0375 23.5017C14.2605 23.1876 13.5466 23.032 12.8937 23.032C12.209 23.032 11.4747 23.1876 10.6893 23.5017C9.90262 23.8172 9.26892 23.9816 8.78441 23.9979C8.04755 24.0291 7.31308 23.7076 6.57996 23.032C6.11205 22.6276 5.52678 21.9343 4.82565 20.9521C4.07339 19.9033 3.45493 18.687 2.97042 17.3004C2.45153 15.8026 2.19141 14.3523 2.19141 12.9482C2.19141 11.3398 2.54212 9.95259 3.24459 8.79011C3.79668 7.85636 4.53114 7.11979 5.45038 6.57906C6.36962 6.03834 7.36286 5.76279 8.4325 5.74516C9.01777 5.74516 9.78527 5.92456 10.739 6.27715C11.6901 6.63091 12.3008 6.81032 12.5686 6.81032C12.7687 6.81032 13.4471 6.60054 14.5972 6.18233C15.6848 5.79449 16.6027 5.63391 17.3546 5.69716C19.3922 5.86012 20.9231 6.6561 21.9411 8.09013C20.1188 9.18432 19.2173 10.7169 19.2353 12.6829C19.2517 14.2142 19.8123 15.4886 20.9141 16.5004C21.4134 16.97 21.971 17.333 22.5914 17.5907C22.4569 17.9774 22.3148 18.3477 22.1639 18.7033ZM17.4907 0.480137C17.4907 1.68041 17.0482 2.8011 16.1661 3.8384C15.1017 5.07155 13.8143 5.78412 12.4182 5.67168C12.4004 5.52769 12.3901 5.37614 12.3901 5.21688C12.3901 4.06462 12.8962 2.83147 13.7952 1.82321C14.2439 1.3127 14.8147 0.888228 15.5069 0.549615C16.1975 0.216055 16.8508 0.031589 17.4652 0C17.4832 0.160458 17.4907 0.320926 17.4907 0.480121V0.480137Z" fill="#33384B"/>
</svg>
