<svg width="25" height="25" viewBox="0 0 25 25" fill="none" xmlns="http://www.w3.org/2000/svg">
<path d="M18.4981 7.46078C18.4381 7.45078 18.3681 7.45078 18.3081 7.46078C16.9281 7.41078 15.8281 6.28078 15.8281 4.88078C15.8281 3.45078 16.9781 2.30078 18.4081 2.30078C19.8381 2.30078 20.9881 3.46078 20.9881 4.88078C20.9781 6.28078 19.8781 7.41078 18.4981 7.46078Z" stroke="#353469" stroke-width="1.5" stroke-linecap="round" stroke-linejoin="round"/>
<path d="M17.4675 14.7409C18.8375 14.9709 20.3475 14.7309 21.4075 14.0209C22.8175 13.0809 22.8175 11.5409 21.4075 10.6009C20.3375 9.89094 18.8075 9.65094 17.4375 9.89094" stroke="#353469" stroke-width="1.5" stroke-linecap="round" stroke-linejoin="round"/>
<path d="M6.47047 7.46078C6.53047 7.45078 6.60047 7.45078 6.66047 7.46078C8.04047 7.41078 9.14047 6.28078 9.14047 4.88078C9.14047 3.45078 7.99047 2.30078 6.56047 2.30078C5.13047 2.30078 3.98047 3.46078 3.98047 4.88078C3.99047 6.28078 5.09047 7.41078 6.47047 7.46078Z" stroke="#353469" stroke-width="1.5" stroke-linecap="round" stroke-linejoin="round"/>
<path d="M7.5014 14.7409C6.1314 14.9709 4.62141 14.7309 3.56141 14.0209C2.15141 13.0809 2.15141 11.5409 3.56141 10.6009C4.63141 9.89094 6.1614 9.65094 7.5314 9.89094" stroke="#353469" stroke-width="1.5" stroke-linecap="round" stroke-linejoin="round"/>
<path d="M12.4981 14.9305C12.4381 14.9205 12.3681 14.9205 12.3081 14.9305C10.9281 14.8805 9.82812 13.7505 9.82812 12.3505C9.82812 10.9205 10.9781 9.77051 12.4081 9.77051C13.8381 9.77051 14.9881 10.9305 14.9881 12.3505C14.9781 13.7505 13.8781 14.8905 12.4981 14.9305Z" stroke="#353469" stroke-width="1.5" stroke-linecap="round" stroke-linejoin="round"/>
<path d="M9.58875 18.0802C8.17875 19.0202 8.17875 20.5602 9.58875 21.5002C11.1888 22.5702 13.8087 22.5702 15.4087 21.5002C16.8187 20.5602 16.8187 19.0202 15.4087 18.0802C13.8187 17.0202 11.1888 17.0202 9.58875 18.0802Z" stroke="#353469" stroke-width="1.5" stroke-linecap="round" stroke-linejoin="round"/>
</svg>
