<svg width="25" height="25" viewBox="0 0 25 25" fill="none" xmlns="http://www.w3.org/2000/svg">
<path d="M14.5 6.50073V10.3008C11.71 10.3508 10.55 11.5108 10.5 14.3008H6.7C3.7 14.3008 2.5 13.1008 2.5 10.1008V6.50073C2.5 3.50073 3.7 2.30078 6.7 2.30078H10.3C13.3 2.30078 14.5 3.50073 14.5 6.50073Z" stroke="#353469" stroke-width="1.5" stroke-linecap="round" stroke-linejoin="round"/>
<path d="M7.45922 6.17086C6.92922 5.81086 6.22922 5.81088 5.69922 6.19088" stroke="#353469" stroke-width="1.5" stroke-miterlimit="10" stroke-linecap="round" stroke-linejoin="round"/>
<path d="M11.4592 6.17086C10.9292 5.81086 10.2292 5.81088 9.69922 6.19088" stroke="#353469" stroke-width="1.5" stroke-miterlimit="10" stroke-linecap="round" stroke-linejoin="round"/>
<path d="M8.66078 11.7205H6.34078C6.04078 11.7205 5.80078 11.4804 5.80078 11.1804C5.80078 9.69042 7.01078 8.48047 8.50078 8.48047C9.14078 8.48047 9.73078 8.70043 10.1908 9.07043" stroke="#353469" stroke-width="1.5" stroke-miterlimit="10" stroke-linecap="round" stroke-linejoin="round"/>
<path d="M22.5 14.5007V18.1008C22.5 21.1008 21.3 22.3008 18.3 22.3008H14.7C11.7 22.3008 10.5 21.1008 10.5 18.1008V14.3008C10.55 11.5108 11.71 10.3508 14.5 10.3008H18.3C21.3 10.3008 22.5 11.5007 22.5 14.5007Z" stroke="#353469" stroke-width="1.5" stroke-linecap="round" stroke-linejoin="round"/>
<path d="M15.4592 13.9204C14.9292 14.2804 14.2292 14.2804 13.6992 13.9004" stroke="#353469" stroke-width="1.5" stroke-miterlimit="10" stroke-linecap="round" stroke-linejoin="round"/>
<path d="M19.4592 13.9204C18.9292 14.2804 18.2292 14.2804 17.6992 13.9004" stroke="#353469" stroke-width="1.5" stroke-miterlimit="10" stroke-linecap="round" stroke-linejoin="round"/>
<path d="M14.3408 16.4805H18.6608C18.9608 16.4805 19.2008 16.7204 19.2008 17.0204C19.2008 18.5104 17.9908 19.7205 16.5008 19.7205C15.0108 19.7205 13.8008 18.5104 13.8008 17.0204C13.8008 16.7204 14.0408 16.4805 14.3408 16.4805Z" stroke="#353469" stroke-width="1.5" stroke-miterlimit="10" stroke-linecap="round" stroke-linejoin="round"/>
</svg>
