<svg width="172" height="55" viewBox="0 0 172 55" fill="none" xmlns="http://www.w3.org/2000/svg">
<path fill-rule="evenodd" clip-rule="evenodd" d="M138.831 -151.356C139.653 -149.85 140.544 -148.376 141.5 -146.935C141.445 -146.907 141.388 -146.88 141.333 -146.852C135.75 -151.597 129.633 -155.545 122.983 -158.696C104.071 -167.403 84.5533 -168.987 64.431 -163.45C51.4165 -159.324 39.8784 -152.734 29.8167 -143.682C33.5267 -148.784 37.8917 -153.315 42.9117 -157.278C43.1112 -157.387 43.1112 -157.47 42.9117 -157.528C26.4782 -147.847 15.0513 -134.002 8.63111 -115.991C2.89915 -99.0376 2.34316 -81.9113 6.96295 -64.6117C14.6356 -39.7018 30.3442 -21.8802 54.0884 -11.1473C58.9682 -8.97368 64.0283 -7.38893 69.2686 -6.39304C69.2081 -7.36223 69.0412 -8.30807 68.7682 -9.2289C68.451 -11.2724 68.2842 -13.3292 68.2677 -15.4011C68.2724 -16.2952 68.2167 -17.1852 68.1009 -18.0701C68.1009 -20.8504 68.1009 -23.6306 68.1009 -26.4109C68.777 -35.1782 70.6954 -43.6858 73.856 -51.9337C74.4649 -53.4846 75.16 -54.9859 75.9412 -56.4377C82.6561 -70.4088 92.7763 -81.1684 106.302 -88.7165C117.606 -94.6515 129.616 -96.9314 142.334 -95.556C150.978 -94.4376 158.708 -91.2126 165.521 -85.8807C167.058 -84.5953 168.447 -83.1774 169.692 -81.6269C170.03 -81.2335 170.364 -80.8442 170.693 -80.4592C171.014 -80.0226 171.071 -79.5779 170.859 -79.1246C169.196 -80.5134 167.528 -81.9036 165.855 -83.295C157.207 -90.0999 147.337 -93.3251 136.245 -92.9703C126.93 -92.9056 118.173 -90.6536 109.972 -86.2143C95.0722 -77.903 84.6183 -65.7532 78.6103 -49.7651C76.7296 -44.3543 75.4228 -38.7938 74.6901 -33.0835C75.8879 -37.0399 77.3613 -40.8766 79.1107 -44.5938C83.8413 -55.0263 90.6807 -63.8397 99.6291 -71.0341C100.712 -71.7566 101.768 -72.5072 102.799 -73.2861C110.558 -78.5203 119.066 -80.3552 128.321 -78.791C129.866 -78.1828 131.422 -77.5712 132.992 -76.956C138.429 -74.0968 141.458 -69.5928 142.084 -63.444C142.274 -59.3918 141.94 -55.3883 141.083 -51.4332C136.839 -34.4658 127.748 -20.759 113.808 -10.3132C111.603 -8.85023 109.379 -7.4323 107.136 -6.0594C103.04 -3.87079 98.7585 -2.20262 94.291 -1.05493C91.1792 -0.43605 88.0652 0.00935364 84.9493 0.279587C63.4302 -0.079071 44.6356 -7.33554 28.5656 -21.4898C7.67775 -41.05 -1.63607 -65.1548 0.623953 -93.8044C3.6605 -119.329 15.421 -139.708 35.9055 -154.942C57.0544 -169.17 80.1305 -173.618 105.134 -168.288C116.996 -165.442 127.727 -160.326 137.329 -152.941C137.868 -152.43 138.369 -151.901 138.831 -151.356Z" fill="#817FC5"/>
<path fill-rule="evenodd" clip-rule="evenodd" d="M169.69 -71.4377C167.446 -56.501 161.579 -43.2113 152.091 -31.5687C138.672 -15.2475 121.518 -5.10011 100.628 -1.12489C95.4426 -0.157356 90.2156 0.316399 84.9473 0.293045C88.0632 0.0228043 91.1772 -0.422592 94.2889 -1.04148C94.5632 -1.07651 94.8134 -1.02146 95.0396 -0.874664C95.7836 -1.10654 96.5343 -1.3284 97.2916 -1.54192C97.4998 -1.45184 97.6945 -1.34008 97.8755 -1.2083C98.31 -1.5119 98.7549 -1.62366 99.21 -1.54192C99.3842 -1.72876 99.4953 -1.95229 99.5436 -2.20919C101.135 -2.25423 102.72 -2.50446 104.298 -2.95986C105.482 -3.55706 106.677 -3.9741 107.884 -4.21098C109.086 -4.78983 110.393 -5.26192 111.805 -5.62891C112.301 -5.84911 112.774 -6.09933 113.223 -6.37958C113.65 -6.33955 114.039 -6.50636 114.39 -6.88003C114.703 -6.7816 114.981 -6.89337 115.224 -7.21365C115.838 -7.2587 116.394 -7.53561 116.892 -8.04774C116.948 -7.99268 117.004 -7.93597 117.059 -7.88092C118.156 -8.71166 119.435 -9.54574 120.896 -10.3832C120.952 -10.3281 121.007 -10.2714 121.063 -10.2163C121.71 -10.7602 122.377 -11.2606 123.065 -11.7177C123.325 -11.5759 123.491 -11.6877 123.565 -12.0513C123.621 -11.9963 123.676 -11.9395 123.732 -11.8845C124.24 -12.4417 124.74 -12.9972 125.233 -13.5527C125.289 -13.4976 125.345 -13.4409 125.4 -13.3858C125.745 -13.7678 126.162 -14.0448 126.651 -14.2199C126.865 -14.7437 127.254 -14.9672 127.819 -14.8872C127.794 -15.0623 127.822 -15.2291 127.902 -15.3876C128.163 -15.2458 128.329 -15.3576 128.403 -15.7213C128.458 -15.6095 128.514 -15.4994 128.57 -15.3876C128.743 -15.5745 128.855 -15.798 128.903 -16.0549C128.972 -15.9781 129.055 -15.9231 129.153 -15.8881C129.797 -16.4486 130.465 -16.9764 131.155 -17.4728C131.904 -17.8565 132.571 -18.2457 133.157 -18.6405C133.022 -18.6919 132.912 -18.7753 132.823 -18.8908C132.895 -19.3323 133.117 -19.6659 133.491 -19.8916C133.075 -20.0653 133.075 -20.2043 133.491 -20.3087C133.372 -20.5327 133.427 -20.7551 133.657 -20.9759C133.504 -21.553 133.531 -22.1368 133.741 -22.7275C134.039 -22.9083 134.4 -22.9083 134.825 -22.7275C135.017 -22.7806 135.155 -22.8917 135.242 -23.0611C135.301 -22.2573 135.634 -22.0347 136.243 -22.3939C136.298 -22.2826 136.355 -22.1715 136.41 -22.0602C136.487 -22.6202 136.765 -22.8426 137.244 -22.7275C138.558 -24.0429 139.893 -25.3774 141.248 -26.7311C141.349 -27.0335 141.294 -27.0892 141.081 -26.8979C140.775 -27.2153 140.804 -27.5211 141.164 -27.8154C141.087 -27.8844 141.032 -27.9679 140.997 -28.0656C141.396 -28.4643 141.73 -28.9092 141.998 -29.4001C142.422 -29.3676 142.866 -29.4233 143.333 -29.5669C143.396 -29.9743 143.284 -30.0856 142.999 -29.9006C142.832 -29.984 142.665 -30.0674 142.499 -30.1508C142.277 -30.2621 142.277 -30.3732 142.499 -30.4844C142.981 -30.529 143.481 -30.5011 144 -30.401C144.215 -30.5008 144.439 -30.5842 144.667 -30.6512C144.31 -30.9772 143.948 -31.1719 143.583 -31.2351C143.414 -31.0955 143.219 -31.0399 142.999 -31.0683C142.999 -31.2351 142.999 -31.4019 142.999 -31.5687C143.63 -31.5871 144.269 -31.5871 144.917 -31.5687C145.678 -31.6762 146.152 -32.0932 146.335 -32.8199C146.28 -32.8754 146.224 -32.9311 146.169 -32.9867C146.657 -33.1555 146.796 -33.4613 146.586 -33.9042C146.737 -33.7116 146.878 -33.7395 147.003 -33.9876C146.948 -34.0431 146.891 -34.0988 146.836 -34.1544C147.485 -34.1996 147.597 -34.0049 147.169 -33.5705C147.358 -33.3864 147.496 -33.4419 147.587 -33.7373C147.642 -33.6261 147.698 -33.515 147.753 -33.4037C147.78 -33.7667 147.92 -34.0725 148.17 -34.3212C148.329 -34.4241 148.467 -34.3964 148.587 -34.2378C149.45 -35.1561 150.367 -36.018 151.34 -36.8234C151.041 -37.0174 150.708 -37.1287 150.339 -37.1571C150.823 -37.2558 151.128 -37.506 151.256 -37.9077C151.201 -37.8522 151.145 -37.7965 151.09 -37.7409C150.553 -38.4671 149.914 -38.5783 149.171 -38.0745C149.338 -37.6528 149.477 -37.6528 149.588 -38.0745C149.675 -37.7761 149.62 -37.498 149.422 -37.2405C149.156 -37.4451 148.934 -37.3896 148.754 -37.0737C148.467 -37.2989 148.162 -37.4935 147.837 -37.6575C148.114 -37.7784 148.197 -37.9731 148.087 -38.2414C147.952 -37.8408 147.813 -37.8687 147.67 -38.3248C147.421 -38.553 147.171 -38.5808 146.919 -38.4082C146.868 -38.543 146.784 -38.6542 146.669 -38.7418C146.567 -38.4949 146.511 -38.2726 146.502 -38.0745C146.402 -38.5228 146.18 -38.8843 145.835 -39.1588C145.955 -39.4344 146.01 -39.6846 146.002 -39.9095C146.109 -39.6605 146.275 -39.4936 146.502 -39.4091C146.487 -38.8923 146.571 -38.8366 146.752 -39.2423C146.806 -38.8971 146.946 -38.8416 147.169 -39.0754C147.341 -38.8185 147.565 -38.7351 147.837 -38.8252C147.912 -39.4197 148.245 -39.7534 148.838 -39.8261C148.783 -39.8817 148.726 -39.9374 148.671 -39.9929C148.838 -40.0763 149.004 -40.1597 149.171 -40.2431C149.757 -41.0784 150.424 -41.8291 151.173 -42.4952C151.061 -42.5507 150.951 -42.6064 150.839 -42.662C151.213 -42.9521 151.492 -43.3136 151.674 -43.7463C151.44 -43.9701 151.495 -44.1093 151.84 -44.1633C151.717 -44.5004 151.857 -44.7507 152.257 -44.914C152.354 -45.4291 152.576 -45.874 152.925 -46.2485C153.1 -47.1493 153.46 -47.9557 154.009 -48.6673C153.922 -48.7609 153.865 -48.8722 153.842 -49.001C154.501 -49.5666 154.973 -50.2618 155.26 -51.0862C155.612 -51.1754 155.695 -51.3422 155.51 -51.5866C156.648 -53.1849 157.706 -54.7696 158.68 -56.3409C158.625 -56.3964 158.568 -56.4521 158.513 -56.5077C159.154 -57.3085 159.571 -58.226 159.764 -59.2601C160.131 -59.5154 160.27 -59.8213 160.181 -60.1776C160.403 -60.4557 160.627 -60.7336 160.848 -61.0117C160.737 -61.0672 160.627 -61.123 160.515 -61.1785C160.918 -61.3693 161.029 -61.6473 160.848 -62.0126C161.184 -62.4094 161.491 -62.8265 161.766 -63.2637C162.155 -64.0936 162.543 -64.9277 162.934 -65.7659C163.291 -66.3396 163.708 -66.8679 164.185 -67.3507C164.226 -67.5275 164.226 -67.7222 164.185 -67.9345C164.41 -68.1879 164.66 -68.4103 164.935 -68.6018C165.04 -69.1116 165.236 -69.4452 165.519 -69.6027C165.808 -69.7056 166.058 -69.8724 166.27 -70.1031C166.35 -69.945 166.378 -69.7782 166.353 -69.6027C166.186 -69.6027 166.02 -69.6027 165.853 -69.6027C165.851 -69.3011 165.935 -69.023 166.103 -68.7686C166.952 -69.3918 167.036 -70.0868 166.353 -70.8538C166.775 -71.4587 167.052 -72.1259 167.187 -72.8556C167.001 -73.1247 167.084 -73.3193 167.438 -73.4395C167.861 -73.32 168.278 -73.0698 168.689 -72.6888C168.385 -72.3937 168.108 -72.199 167.855 -72.1049C168.102 -71.9414 168.323 -71.7468 168.522 -71.5211C168.467 -71.243 168.41 -70.9651 168.355 -70.687C168.438 -70.6036 168.522 -70.5202 168.605 -70.4368C169.002 -70.7781 169.336 -71.1673 169.606 -71.6045C169.673 -71.5664 169.701 -71.5107 169.69 -71.4377Z" fill="#D8B6CB"/>
<path fill-rule="evenodd" clip-rule="evenodd" d="M97.7926 7.79492C98.8841 8.02179 99.6626 8.66236 100.128 9.7133C100.818 11.0195 100.957 12.3824 100.545 13.8003C100.356 14.0855 100.106 14.1689 99.7944 14.0505C98.2545 13.3816 97.476 12.2422 97.459 10.6308C98.1618 10.916 98.7456 11.3614 99.2105 11.9653C99.0446 11.2347 98.7109 10.5674 98.2097 9.96353C97.8929 9.27624 97.7539 8.55393 97.7926 7.79492Z" fill="#8584C8"/>
<path fill-rule="evenodd" clip-rule="evenodd" d="M104.955 8.9668C105.177 8.9668 105.4 8.9668 105.622 8.9668C105.648 9.6474 105.565 10.3147 105.372 10.9686C104.961 11.5458 104.488 12.0746 103.954 12.5533C104.52 12.6784 105.076 12.6518 105.622 12.4699C105.792 12.5533 105.82 12.6651 105.705 12.8036C104.721 13.9879 103.47 14.6002 101.952 14.6385C101.63 14.6319 101.325 14.5768 101.035 14.4717C100.923 14.0263 100.923 13.5826 101.035 13.1372C101.518 12.2097 102.13 11.3756 102.87 10.635C103.592 10.0961 104.287 9.53897 104.955 8.9668Z" fill="#8584C8"/>
<path fill-rule="evenodd" clip-rule="evenodd" d="M123.804 13.1328C124.36 13.1328 124.916 13.1328 125.472 13.1328C125.5 19.9172 125.472 26.6999 125.389 33.4843C124.495 34.8906 123.299 35.1975 121.802 34.4018C121.471 34.1816 121.276 33.8763 121.218 33.4843C121.107 27.5907 121.107 21.6955 121.218 15.8019C121.782 14.5991 122.644 13.7083 123.804 13.1328Z" fill="#8180C6"/>
<path fill-rule="evenodd" clip-rule="evenodd" d="M130.471 13.1328C131.084 13.1328 131.694 13.1328 132.306 13.1328C132.335 19.5269 132.306 25.9226 132.223 32.3166C131.754 36.2334 129.669 38.8741 125.967 40.2404C125.472 40.3721 124.971 40.4839 124.466 40.574C121.075 40.6574 117.683 40.6858 114.29 40.6574C114.249 38.4471 115.25 36.9174 117.293 36.07C119.8 36.0466 122.303 35.9348 124.8 35.7363C126.467 35.0974 127.44 33.9014 127.719 32.1498C127.774 26.8667 127.831 21.5854 127.886 16.3023C128.234 14.8143 129.097 13.7584 130.471 13.1328Z" fill="#8280C6"/>
<path fill-rule="evenodd" clip-rule="evenodd" d="M75.1069 15.9746C76.3495 16.2982 77.2113 17.0773 77.6926 18.31C78.1612 19.5161 78.2167 20.7389 77.8594 21.98C77.7481 22.0917 77.637 22.2018 77.5258 22.3136C76.9047 22.0817 76.3208 21.7765 75.7742 21.3961C75.2889 20.8339 74.9274 20.1934 74.6899 19.4777C74.5596 19.2375 74.5875 19.014 74.7733 18.8105C75.4436 19.0624 75.9996 19.4794 76.4415 20.0616C76.5527 20.1734 76.6638 20.1734 76.7751 20.0616C75.8084 18.8555 75.2524 17.4926 75.1069 15.9746Z" fill="#8584C8"/>
<path fill-rule="evenodd" clip-rule="evenodd" d="M87.2421 35.6565C87.1515 35.6665 87.096 35.7215 87.0753 35.8233C92.1627 36.0451 97.2229 36.0451 102.256 35.8233C102.98 35.7666 103.648 35.5447 104.257 35.156C104.348 35.146 104.403 35.091 104.424 34.9892C103.15 34.8224 101.871 34.7673 100.587 34.8224C97.6883 34.5822 95.4363 33.2476 93.8313 30.8188C91.052 25.424 92.1919 21.0584 97.251 17.7238C101.909 15.7821 105.83 16.7563 109.012 20.6431C110.491 23.0769 111.02 25.7193 110.596 28.5668C111.337 33.4178 109.669 37.1428 105.592 39.7434C104.571 40.1521 103.515 40.4291 102.422 40.5775C96.6393 40.6893 90.8565 40.6893 85.0735 40.5775C84.9406 39.952 84.8571 39.3131 84.8233 38.6591C83.2807 39.8586 81.5292 40.4991 79.5686 40.5775C72.1733 40.6609 64.7779 40.6893 57.3821 40.6609C57.1991 38.6074 58.0332 37.1345 59.8844 36.2403C63.4876 35.9951 67.102 35.9117 70.7274 35.9901C71.3933 32.844 70.2256 30.7588 67.2242 29.7345C64.7685 29.7228 62.3219 29.6127 59.8844 29.4009C58.0395 28.5218 57.2055 27.0471 57.3821 24.9803C60.7189 24.9519 64.0552 24.9803 67.3911 25.0637C71.8243 25.8944 74.41 28.5351 75.148 32.9874C75.2312 33.9866 75.2591 34.9875 75.2314 35.9901C81.362 37.1695 84.2258 34.6672 83.8224 28.4834C84.6605 26.6868 86.0784 25.8527 88.0762 25.9812C88.104 28.3166 88.0762 30.652 87.9928 32.9874C87.7921 33.8949 87.5419 34.784 87.2421 35.6565Z" fill="#8180C6"/>
<path fill-rule="evenodd" clip-rule="evenodd" d="M82.281 17.1367C82.5033 17.1367 82.7259 17.1367 82.9482 17.1367C83.064 18.6281 82.508 19.7958 81.2801 20.6398C81.8379 20.85 82.3939 20.85 82.9482 20.6398C83.1185 20.7233 83.1464 20.835 83.0316 20.9735C82.0471 22.1579 80.796 22.7701 79.2783 22.8084C78.9565 22.8018 78.6507 22.7467 78.3608 22.6416C78.2495 22.1962 78.2495 21.7525 78.3608 21.3071C79.3659 19.6289 80.6725 18.2377 82.281 17.1367Z" fill="#8583C8"/>
<path fill-rule="evenodd" clip-rule="evenodd" d="M100.324 21.1425C103.318 20.8422 105.181 22.12 105.912 24.9792C105.996 26.8125 106.024 28.6475 105.996 30.4841C104.327 30.5125 102.659 30.4841 100.991 30.4007C99.1791 29.9787 97.928 28.8944 97.2381 27.1478C96.9647 25.7132 97.187 24.3787 97.9053 23.1442C98.5975 22.3102 99.4039 21.6429 100.324 21.1425Z" fill="#FDFDFE"/>
<path fill-rule="evenodd" clip-rule="evenodd" d="M52.6101 24.8105C52.9437 24.8105 53.2774 24.8105 53.611 24.8105C53.6389 29.9818 53.611 35.1531 53.5276 40.3244C52.6171 44.3497 50.1426 46.8235 46.1043 47.7477C43.714 47.8311 41.3229 47.8595 38.9312 47.8311C38.8587 45.5607 39.9153 44.0861 42.1007 43.4105C43.3797 43.3554 44.6585 43.2987 45.9375 43.2437C47.5274 42.5447 48.5004 41.3486 48.8568 39.6571C48.9123 35.6536 48.968 31.65 49.0236 27.6464C49.7239 26.0366 50.9194 25.0908 52.6101 24.8105Z" fill="#8180C6"/>
<path fill-rule="evenodd" clip-rule="evenodd" d="M100.617 34.8175C101.901 34.7624 103.18 34.8175 104.454 34.9843C104.433 35.0861 104.378 35.1411 104.287 35.1511C103.064 35.0394 101.84 34.9293 100.617 34.8175Z" fill="#B7B7DE"/>
<path fill-rule="evenodd" clip-rule="evenodd" d="M87.2918 35.6523C92.2678 35.8192 97.2722 35.8742 102.305 35.8192C97.2726 36.041 92.2124 36.041 87.125 35.8192C87.1457 35.7174 87.2012 35.6624 87.2918 35.6523Z" fill="#D5D4EC"/>
</svg>
