<svg width="144" height="112" viewBox="0 0 144 112" fill="none" xmlns="http://www.w3.org/2000/svg">
<path d="M143.202 94.3283C140.861 98.0682 137.447 100.612 133.974 103.004C124.195 109.757 113.435 112.708 101.696 111.859C96.4818 111.502 91.3555 110.278 86.5117 108.232C106.058 107.379 122.412 99.4784 135.587 84.2148C138.336 86.6419 141.495 88.5236 143.202 92.0064V94.3283Z" fill="#F2F2FF"/>
<path d="M49.9004 50.3339C50.2365 31.0616 56.279 15.498 68.2968 2.49781C70.4254 0.195411 72.8529 0.207099 74.9928 2.49781C84.6727 12.9346 90.7488 25.2802 92.5937 39.6907C95.3572 61.207 89.3372 79.8443 75.1198 95.6378C72.8604 98.1466 70.4254 98.096 68.1287 95.6144C58.9204 85.7973 52.8616 73.2396 50.7892 59.6759C50.2178 56.1931 50.1058 52.6324 49.9004 50.3339Z" fill="#F2F2FF"/>
<path d="M91.3047 88.4305C93.0749 84.5036 95.0392 80.6117 96.6152 76.5485C100.723 65.839 102.217 54.6854 101.362 43.1734C100.846 36.2074 99.3863 29.3527 97.026 22.8142C96.6525 21.8168 96.7907 21.3065 97.7206 20.913C102.064 19.0898 106.355 17.1108 110.75 15.459C113.566 14.3915 115.889 15.8485 116.554 18.9223C121.889 43.4007 116 64.4703 98.8858 82.1311C96.8692 84.1997 94.5164 85.9061 92.3055 87.7683C91.9843 88.0087 91.6501 88.2298 91.3047 88.4305Z" fill="#F2F2FF"/>
<path d="M51.8319 88.7414C48.7621 85.956 45.5168 83.3497 42.6487 80.35C32.9688 70.221 27.2997 57.9532 25.3167 43.8388C24.1866 35.5478 24.6512 27.105 26.6835 19.0033C27.4304 15.8633 29.6712 14.3713 32.5654 15.4543C36.8378 17.0554 40.998 18.9605 45.2255 20.7097C46.4318 21.2044 46.6335 21.8511 46.1629 23.125C42.5889 32.8255 41.2296 42.9155 41.7636 53.251C42.3358 65.0741 45.6264 76.58 51.3576 86.7974L52.1979 88.3051L51.8319 88.7414Z" fill="#F2F2FF"/>
<path d="M17.359 47.3496C21.5603 69.9451 33.1113 87.0553 51.9819 99.027C51.2089 98.9335 50.4321 98.8478 49.659 98.7387C48.886 98.6296 48.0905 98.5439 47.3175 98.3764C27.3402 94.0287 13.119 82.1713 4.65406 62.8041C3.5337 60.2173 2.78679 57.4435 1.97266 54.7165C1.80469 54.1954 1.73786 53.6446 1.77608 53.0963C1.8143 52.548 1.9568 52.0131 2.19527 51.5228C2.43374 51.0325 2.7634 50.5967 3.16503 50.2407C3.56666 49.8847 4.03223 49.6157 4.53456 49.4494C8.69349 48.1241 13.0108 47.4172 17.359 47.3496Z" fill="#F2F2FF"/>
<path d="M91.3008 99.0829C110.115 87.119 121.678 70.001 125.954 47.1484C128.882 47.538 131.809 47.9276 134.73 48.3951C135.92 48.5995 137.097 48.8845 138.252 49.2483C140.765 50.0274 142.023 52.2947 141.265 54.8932C134.36 78.5288 119.254 92.9354 96.2005 98.3427C94.5947 98.7206 92.9365 98.8453 91.3008 99.0829Z" fill="#F2F2FF"/>
<path d="M7.62924 84.1445C20.8607 99.4743 37.2068 107.363 56.8281 108.45C54.5127 109.171 52.2309 110.071 49.8744 110.585C31.6498 114.567 15.6249 110.086 1.93779 96.8213C-0.631574 94.3319 -0.653981 91.8659 1.91912 89.3493C3.73411 87.5572 5.68727 85.9015 7.62924 84.1445Z" fill="#F2F2FF"/>
</svg>
