<svg width="144" height="112" viewBox="0 0 144 112" fill="none" xmlns="http://www.w3.org/2000/svg">
<g opacity="0.1" clip-path="url(#clip0_267_6323)">
<path d="M143.202 99.7775C140.861 103.517 137.447 106.061 133.974 108.453C124.195 115.206 113.435 118.158 101.696 117.308C96.4818 116.952 91.3555 115.727 86.5117 113.681C106.058 112.828 122.412 104.928 135.587 89.6641C138.336 92.0911 141.495 93.9728 143.202 97.4556V99.7775Z" fill="#F2F2FF"/>
<path d="M49.9004 55.7831C50.2365 36.5108 56.279 20.9472 68.2968 7.94703C70.4254 5.64463 72.8529 5.65632 74.9928 7.94703C84.6727 18.3838 90.7488 30.7295 92.5937 45.1399C95.3572 66.6562 89.3372 85.2935 75.1198 101.087C72.8604 103.596 70.4254 103.545 68.1287 101.064C58.9204 91.2465 52.8616 78.6888 50.7892 65.1252C50.2178 61.6424 50.1058 58.0816 49.9004 55.7831Z" fill="#F2F2FF"/>
<path d="M91.3047 93.8798C93.0749 89.9528 95.0392 86.061 96.6152 81.9977C100.723 71.2882 102.217 60.1346 101.362 48.6227C100.846 41.6566 99.3863 34.802 97.026 28.2634C96.6525 27.2661 96.7907 26.7557 97.7206 26.3622C102.064 24.539 106.355 22.56 110.75 20.9082C113.566 19.8407 115.889 21.2977 116.554 24.3715C121.889 48.8499 116 69.9195 98.8858 87.5803C96.8692 89.649 94.5164 91.3553 92.3055 93.2175C91.9843 93.4579 91.6501 93.6791 91.3047 93.8798Z" fill="#F2F2FF"/>
<path d="M51.8319 94.1907C48.7621 91.4052 45.5168 88.7989 42.6487 85.7992C32.9688 75.6702 27.2997 63.4024 25.3167 49.2881C24.1866 40.997 24.6512 32.5542 26.6835 24.4525C27.4304 21.3126 29.6712 19.8205 32.5654 20.9035C36.8378 22.5047 40.998 24.4097 45.2255 26.1589C46.4318 26.6537 46.6335 27.3004 46.1629 28.5743C42.5889 38.2747 41.2296 48.3648 41.7636 58.7002C42.3358 70.5233 45.6264 82.0292 51.3576 92.2467L52.1979 93.7543L51.8319 94.1907Z" fill="#F2F2FF"/>
<path d="M17.359 52.7988C21.5603 75.3943 33.1113 92.5045 51.9819 104.476C51.2089 104.383 50.4321 104.297 49.659 104.188C48.886 104.079 48.0905 103.993 47.3175 103.826C27.3402 99.4779 13.119 87.6205 4.65406 68.2533C3.5337 65.6665 2.78679 62.8928 1.97266 60.1657C1.80469 59.6446 1.73786 59.0938 1.77608 58.5455C1.8143 57.9972 1.9568 57.4623 2.19527 56.972C2.43374 56.4817 2.7634 56.0459 3.16503 55.6899C3.56666 55.3339 4.03223 55.065 4.53456 54.8986C8.69349 53.5733 13.0108 52.8664 17.359 52.7988Z" fill="#F2F2FF"/>
<path d="M91.3008 104.532C110.115 92.5682 121.678 75.4502 125.954 52.5977C128.882 52.9872 131.809 53.3768 134.73 53.8443C135.92 54.0488 137.097 54.3337 138.252 54.6975C140.765 55.4766 142.023 57.744 141.265 60.3424C134.36 83.9781 119.254 98.3846 96.2005 103.792C94.5947 104.17 92.9365 104.294 91.3008 104.532Z" fill="#F2F2FF"/>
<path d="M7.62924 89.5938C20.8607 104.924 37.2068 112.812 56.8281 113.899C54.5127 114.62 52.2309 115.52 49.8744 116.034C31.6498 120.016 15.6249 115.536 1.93779 102.271C-0.631574 99.7812 -0.653981 97.3151 1.91912 94.7985C3.73411 93.0064 5.68727 91.3507 7.62924 89.5938Z" fill="#F2F2FF"/>
</g>
<defs>
<clipPath id="clip0_267_6323">
<rect width="143.201" height="111.224" fill="white"/>
</clipPath>
</defs>
</svg>
